<?xml version="1.0" encoding="utf-8"?>
<!-- Generator: Adobe Illustrator 26.0.1, SVG Export Plug-In . SVG Version: 6.00 Build 0)  -->
<svg version="1.1" id="Laag_1" xmlns="http://www.w3.org/2000/svg" xmlns:xlink="http://www.w3.org/1999/xlink" x="0px" y="0px"
	 viewBox="0 0 30 30" style="enable-background:new 0 0 30 30;" xml:space="preserve">
<style type="text/css">
	.st0{fill:#1A60DB;}
</style>
<path class="st0" d="M13.7,7C10,7,7,10,7,13.7s3,6.7,6.7,6.7c1.6,0,3.1-0.6,4.2-1.5l4,4c0.3,0.3,0.7,0.3,0.9,0
	c0.3-0.3,0.3-0.7,0-0.9c0,0,0,0,0,0l-4-4c0.9-1.2,1.5-2.6,1.5-4.2C20.3,10,17.3,7,13.7,7z M13.7,8.3c3,0,5.3,2.4,5.3,5.3
	S16.6,19,13.7,19s-5.3-2.4-5.3-5.3S10.7,8.3,13.7,8.3z"/>
</svg>
